<svg width="15" height="14" viewBox="0 0 15 14" fill="none" xmlns="http://www.w3.org/2000/svg">
<path d="M6.79561 1.11832C6.97066 0.579587 7.73282 0.579587 7.90786 1.11832L9.12407 4.8614C9.20235 5.10233 9.42687 5.26545 9.68019 5.26545H13.6159C14.1824 5.26545 14.4179 5.99031 13.9596 6.32327L10.7756 8.63662C10.5706 8.78552 10.4848 9.04946 10.5631 9.29039L11.7793 13.0335C11.9544 13.5722 11.3378 14.0202 10.8795 13.6872L7.69544 11.3739C7.4905 11.225 7.21298 11.225 7.00803 11.3739L3.82397 13.6872C3.3657 14.0202 2.7491 13.5722 2.92414 13.0335L4.14034 9.29039C4.21863 9.04946 4.13287 8.78553 3.92792 8.63662L0.743865 6.32327C0.285592 5.99031 0.521113 5.26545 1.08757 5.26545H5.02328C5.27661 5.26545 5.50113 5.10233 5.57941 4.8614L6.79561 1.11832Z" fill="#FF9900"/>
<path d="M6.66433 10.9008L7.00803 11.3739L6.66433 10.9008L3.48027 13.2142L4.69647 9.47109C4.85304 8.98923 4.68152 8.46136 4.27163 8.16355L1.08757 5.8502H5.02328C5.52994 5.8502 5.97897 5.52396 6.13554 5.0421L7.35174 1.29902L8.56794 5.0421C8.7245 5.52396 9.17354 5.8502 9.68019 5.8502L13.6159 5.8502L10.4318 8.16355C10.022 8.46136 9.85044 8.98923 10.007 9.47108L11.2232 13.2142L8.03915 10.9008C7.62926 10.603 7.07422 10.603 6.66433 10.9008Z" stroke="white" stroke-opacity="0.5" stroke-width="1.16949"/>
</svg>
